<?xml version="1.0" standalone="no"?>
<!DOCTYPE svg PUBLIC "-//W3C//DTD SVG 20010904//EN"
 "http://www.w3.org/TR/2001/REC-SVG-20010904/DTD/svg10.dtd">
<svg version="1.0" xmlns="http://www.w3.org/2000/svg"
 width="260.000000pt" height="260.000000pt" viewBox="0 0 260.000000 260.000000"
 preserveAspectRatio="xMidYMid meet">
<metadata>
Created by potrace 1.14, written by Peter Selinger 2001-2017
</metadata>
<g transform="translate(0.000000,260.000000) scale(0.100000,-0.100000)"
fill="#000000" stroke="none">
<path d="M1251 2463 c-124 -274 -175 -358 -407 -668 -235 -314 -324 -463 -384
-644 -102 -303 -56 -591 130 -825 116 -147 265 -226 513 -276 172 -35 351 -23
539 36 169 53 274 121 370 242 192 241 233 550 114 865 -63 168 -143 296 -382
618 -201 270 -265 373 -360 578 -43 94 -81 171 -84 171 -3 0 -25 -44 -49 -97z"/>
</g>
</svg>
